<svg width="18" height="18" viewBox="0 0 18 18" fill="none" xmlns="http://www.w3.org/2000/svg">
<path d="M9.01001 12.1901C9.13001 12.1901 9.22001 12.1601 9.28001 12.1001C9.34001 12.0401 9.37001 11.9501 9.37001 11.8301V10.2101C9.37001 10.0501 9.31001 9.94008 9.19001 9.88008C9.07001 9.82008 8.95001 9.82008 8.83001 9.88008C8.71001 9.94008 8.65001 10.0501 8.65001 10.2101V11.8301C8.65001 11.9501 8.69001 12.0401 8.77001 12.1001C8.85001 12.1601 8.93001 12.1901 9.01001 12.1901ZM9.01001 4.81008C9.13001 4.81008 9.22001 4.78008 9.28001 4.72008C9.34001 4.66008 9.37001 4.59008 9.37001 4.51008V2.83008C9.37001 2.71008 9.31001 2.62008 9.19001 2.56008C9.07001 2.50008 8.95001 2.50008 8.83001 2.56008C8.71001 2.62008 8.65001 2.71008 8.65001 2.83008V4.51008C8.65001 4.59008 8.69001 4.66008 8.77001 4.72008C8.85001 4.78008 8.93001 4.81008 9.01001 4.81008ZM9.01001 8.53008C9.13001 8.53008 9.22001 8.49008 9.28001 8.41008C9.34001 8.33008 9.37001 8.25008 9.37001 8.17008V6.55008C9.37001 6.43008 9.34001 6.34008 9.28001 6.28008C9.22001 6.22008 9.14001 6.19008 9.04001 6.19008C8.94001 6.19008 8.85001 6.22008 8.77001 6.28008C8.69001 6.34008 8.65001 6.43008 8.65001 6.55008V8.17008C8.65001 8.25008 8.69001 8.33008 8.77001 8.41008C8.85001 8.49008 8.93001 8.53008 9.01001 8.53008ZM11.47 4.81008C11.55 4.81008 11.63 4.78008 11.71 4.72008C11.79 4.66008 11.83 4.59008 11.83 4.51008V2.83008C11.83 2.75008 11.79 2.67008 11.71 2.59008C11.63 2.51008 11.55 2.47008 11.47 2.47008C11.39 2.47008 11.31 2.51008 11.23 2.59008C11.15 2.67008 11.11 2.75008 11.11 2.83008V4.51008C11.11 4.59008 11.15 4.66008 11.23 4.72008C11.31 4.78008 11.39 4.81008 11.47 4.81008ZM11.47 8.53008C11.55 8.53008 11.63 8.49008 11.71 8.41008C11.79 8.33008 11.83 8.25008 11.83 8.17008V6.55008C11.83 6.43008 11.79 6.34008 11.71 6.28008C11.63 6.22008 11.55 6.19008 11.47 6.19008C11.39 6.19008 11.31 6.22008 11.23 6.28008C11.15 6.34008 11.11 6.43008 11.11 6.55008V8.17008C11.11 8.25008 11.15 8.33008 11.23 8.41008C11.31 8.49008 11.39 8.53008 11.47 8.53008ZM11.47 12.1901C11.55 12.1901 11.63 12.1601 11.71 12.1001C11.79 12.0401 11.83 11.9501 11.83 11.8301V10.2101C11.83 10.0901 11.79 10.0001 11.71 9.94008C11.63 9.88008 11.55 9.85008 11.47 9.85008C11.39 9.85008 11.31 9.88008 11.23 9.94008C11.15 10.0001 11.11 10.0901 11.11 10.2101V11.8301C11.11 11.9501 11.15 12.0401 11.23 12.1001C11.31 12.1601 11.39 12.1901 11.47 12.1901ZM15.55 13.5101H15.85C15.93 13.5101 16 13.4801 16.06 13.4201C16.12 13.3601 16.15 13.2801 16.15 13.1801C16.15 13.0801 16.12 13.0001 16.06 12.9401C16 12.8801 15.93 12.8501 15.85 12.8501H15.55C15.43 12.8501 15.34 12.8801 15.28 12.9401C15.22 13.0001 15.19 13.0801 15.19 13.1801C15.19 13.2801 15.22 13.3601 15.28 13.4201C15.34 13.4801 15.43 13.5101 15.55 13.5101ZM15.55 11.5301H15.85C15.93 11.5301 16 11.5001 16.06 11.4401C16.12 11.3801 16.15 11.3001 16.15 11.2001C16.15 11.1001 16.12 11.0101 16.06 10.9301C16 10.8501 15.93 10.8101 15.85 10.8101H15.55C15.43 10.8101 15.34 10.8501 15.28 10.9301C15.22 11.0101 15.19 11.1001 15.19 11.2001C15.19 11.3001 15.22 11.3801 15.28 11.4401C15.34 11.5001 15.43 11.5301 15.55 11.5301ZM15.55 15.4901H15.85C15.93 15.4901 16 15.4501 16.06 15.3701C16.12 15.2901 16.15 15.2101 16.15 15.1301C16.15 15.0501 16.12 14.9701 16.06 14.8901C16 14.8101 15.93 14.7701 15.85 14.7701H15.55C15.43 14.7701 15.34 14.8101 15.28 14.8901C15.22 14.9701 15.19 15.0501 15.19 15.1301C15.19 15.2101 15.22 15.2901 15.28 15.3701C15.34 15.4501 15.43 15.4901 15.55 15.4901ZM4.87001 9.55008H5.17001C5.25001 9.55008 5.32001 9.52008 5.38001 9.46008C5.44001 9.40008 5.47001 9.32008 5.47001 9.22008C5.47001 9.12008 5.44001 9.04008 5.38001 8.98008C5.32001 8.92008 5.25001 8.89008 5.17001 8.89008H4.87001C4.75001 8.89008 4.66001 8.92008 4.60001 8.98008C4.54001 9.04008 4.51001 9.12008 4.51001 9.22008C4.51001 9.32008 4.54001 9.40008 4.60001 9.46008C4.66001 9.52008 4.75001 9.55008 4.87001 9.55008ZM4.87001 7.57008H5.17001C5.25001 7.57008 5.32001 7.54008 5.38001 7.48008C5.44001 7.42008 5.47001 7.34008 5.47001 7.24008C5.47001 7.14008 5.44001 7.06008 5.38001 7.00008C5.32001 6.94008 5.25001 6.91008 5.17001 6.91008H4.87001C4.75001 6.91008 4.66001 6.94008 4.60001 7.00008C4.54001 7.06008 4.51001 7.14008 4.51001 7.24008C4.51001 7.34008 4.54001 7.42008 4.60001 7.48008C4.66001 7.54008 4.75001 7.57008 4.87001 7.57008ZM4.87001 11.5301H5.17001C5.25001 11.5301 5.32001 11.5001 5.38001 11.4401C5.44001 11.3801 5.47001 11.3001 5.47001 11.2001C5.47001 11.1001 5.44001 11.0101 5.38001 10.9301C5.32001 10.8501 5.25001 10.8101 5.17001 10.8101H4.87001C4.71001 10.8101 4.60001 10.8701 4.54001 10.9901C4.48001 11.1101 4.48001 11.2301 4.54001 11.3501C4.60001 11.4701 4.71001 11.5301 4.87001 11.5301ZM17.47 7.99008H14.23V0.550079C14.23 0.430079 14.2 0.340079 14.14 0.280079C14.08 0.220079 13.99 0.190079 13.87 0.190079H6.61001C6.53001 0.190079 6.45001 0.230079 6.37001 0.310079C6.29001 0.390079 6.25001 0.470079 6.25001 0.550079V4.87008H3.37001C3.29001 4.87008 3.21001 4.90008 3.13001 4.96008C3.05001 5.02008 3.01001 5.11008 3.01001 5.23008V9.49008C3.01001 9.61008 3.05001 9.70008 3.13001 9.76008C3.21001 9.82008 3.30001 9.85008 3.40001 9.85008C3.50001 9.85008 3.58001 9.82008 3.64001 9.76008C3.70001 9.70008 3.73001 9.61008 3.73001 9.49008V5.53008H6.25001V17.1101H3.73001C3.61001 17.1101 3.52001 17.1501 3.46001 17.2301C3.40001 17.3101 3.37001 17.4001 3.37001 17.5001C3.37001 17.6001 3.40001 17.6801 3.46001 17.7401C3.52001 17.8001 3.61001 17.8301 3.73001 17.8301H16.27C16.71 17.8301 17.08 17.6801 17.38 17.3801C17.68 17.0801 17.83 16.7301 17.83 16.3301V8.35008C17.83 8.27008 17.79 8.19008 17.71 8.11008C17.63 8.03008 17.55 7.99008 17.47 7.99008ZM9.37001 17.1101V14.4101H11.11V17.1101H9.37001ZM13.51 17.1101H11.83V14.0501C11.83 13.9301 11.79 13.8401 11.71 13.7801C11.63 13.7201 11.55 13.6901 11.47 13.6901H9.01001C8.93001 13.6901 8.85001 13.7201 8.77001 13.7801C8.69001 13.8401 8.65001 13.9301 8.65001 14.0501V17.1101H6.97001V0.850079H13.51V17.1101ZM17.11 16.3301C17.11 16.5301 17.03 16.7201 16.87 16.9001C16.71 17.0801 16.51 17.1701 16.27 17.1701H14.23V8.71008H17.11V16.3301ZM4.33001 13.0301C4.33001 12.4301 4.03001 11.8501 3.43001 11.2901C3.11001 10.9701 2.77001 10.7101 2.41001 10.5101C2.33001 10.4701 2.23001 10.4701 2.11001 10.5101C1.79001 10.7101 1.45001 10.9701 1.09001 11.2901C0.490014 11.8501 0.190014 12.4401 0.190014 13.0601C0.190014 13.6801 0.350014 14.2301 0.670014 14.7101C0.990014 15.1901 1.41001 15.4701 1.93001 15.5501V17.4701C1.93001 17.5901 1.96001 17.6801 2.02001 17.7401C2.08001 17.8001 2.16001 17.8301 2.26001 17.8301C2.36001 17.8301 2.44001 17.8001 2.50001 17.7401C2.56001 17.6801 2.59001 17.5901 2.59001 17.4701V15.5501C3.11001 15.4701 3.53001 15.1901 3.85001 14.7101C4.17001 14.2301 4.33001 13.6701 4.33001 13.0301ZM0.850014 13.0301C0.850014 12.7101 1.03001 12.3501 1.39001 11.9501C1.63001 11.7101 1.93001 11.4701 2.29001 11.2301C2.61001 11.4701 2.89001 11.7101 3.13001 11.9501C3.49001 12.3501 3.67001 12.7101 3.67001 13.0301C3.67001 13.4701 3.57001 13.8601 3.37001 14.2001C3.17001 14.5401 2.91001 14.7501 2.59001 14.8301V14.0501C2.59001 13.9301 2.56001 13.8401 2.50001 13.7801C2.44001 13.7201 2.36001 13.6901 2.26001 13.6901C2.16001 13.6901 2.08001 13.7201 2.02001 13.7801C1.96001 13.8401 1.93001 13.9301 1.93001 14.0501V14.8301C1.61001 14.7501 1.35001 14.5401 1.15001 14.2001C0.950014 13.8601 0.850014 13.4701 0.850014 13.0301Z" fill="#1A1A1A"/>
</svg>
