<svg width="14" height="17" viewBox="0 0 14 17" fill="none" xmlns="http://www.w3.org/2000/svg">
<path d="M6.69507 8.11322C7.76174 8.11322 8.6684 7.73099 9.41507 6.96655C10.1617 6.2021 10.5351 5.28655 10.5351 4.21988C10.5351 3.15322 10.1617 2.24655 9.41507 1.49988C8.6684 0.753216 7.76174 0.379882 6.69507 0.379882C5.6284 0.379882 4.72174 0.753216 3.97507 1.49988C3.2284 2.24655 2.85507 3.15322 2.85507 4.21988C2.85507 5.28655 3.2284 6.2021 3.97507 6.96655C4.72174 7.73099 5.6284 8.11322 6.69507 8.11322ZM4.61507 2.19322C5.18396 1.62433 5.8684 1.33988 6.6684 1.33988C7.4684 1.33988 8.16174 1.62433 8.7484 2.19322C9.33507 2.7621 9.6284 3.44655 9.6284 4.24655C9.6284 5.04655 9.34396 5.73099 8.77507 6.29988C8.20618 6.86877 7.51285 7.15322 6.69507 7.15322C5.87729 7.15322 5.18396 6.86877 4.61507 6.29988C4.04618 5.73099 3.76174 5.04655 3.76174 4.24655C3.76174 3.44655 4.04618 2.7621 4.61507 2.19322ZM13.4151 12.6999C13.4151 12.3799 13.3795 12.0332 13.3084 11.6599C13.2373 11.2865 13.1484 10.9488 13.0417 10.6465C12.9351 10.3443 12.7928 10.0332 12.6151 9.71322C12.4373 9.39322 12.2328 9.11766 12.0017 8.88655C11.7706 8.65544 11.4773 8.46877 11.1217 8.32655C10.7662 8.18433 10.3751 8.11322 9.9484 8.11322C9.80618 8.11322 9.59285 8.2021 9.3084 8.37988L8.6684 8.80655C8.45507 8.94877 8.17063 9.07322 7.81507 9.17988C7.45952 9.28655 7.11285 9.33988 6.77507 9.33988C6.43729 9.33988 6.09063 9.28655 5.73507 9.17988C5.37952 9.07322 5.11285 8.94877 4.93507 8.80655L4.24174 8.37988C3.99285 8.2021 3.79729 8.11322 3.65507 8.11322C3.2284 8.11322 2.83729 8.18433 2.48174 8.32655C2.12618 8.46877 1.82396 8.65544 1.57507 8.88655C1.32618 9.11766 1.11285 9.39322 0.935071 9.71322C0.757293 10.0332 0.615071 10.3532 0.508404 10.6732C0.401737 10.9932 0.321737 11.331 0.268404 11.6865C0.215071 12.0421 0.179515 12.371 0.161737 12.6732C0.14396 12.9754 0.135071 13.2865 0.135071 13.6065C0.135071 14.4599 0.392849 15.1354 0.908404 15.6332C1.42396 16.131 2.1084 16.3799 2.96174 16.3799H10.6417C11.4595 16.3799 12.1351 16.131 12.6684 15.6332C13.2017 15.1354 13.4684 14.4599 13.4684 13.6065C13.4684 13.2865 13.4506 12.9843 13.4151 12.6999ZM12.0284 14.9399C11.6728 15.2599 11.2106 15.4199 10.6417 15.4199H2.96174C2.35729 15.4199 1.88618 15.2599 1.5484 14.9399C1.21063 14.6199 1.04174 14.1754 1.04174 13.6065L1.09507 12.7532C1.09507 12.4688 1.13063 12.1665 1.20174 11.8465C1.27285 11.5265 1.34396 11.2332 1.41507 10.9665C1.48618 10.6999 1.59285 10.4421 1.73507 10.1932C1.87729 9.94433 2.03729 9.73988 2.21507 9.57988C2.39285 9.41988 2.59729 9.29544 2.8284 9.20655C3.05952 9.11766 3.29952 9.07322 3.5484 9.07322L4.40174 9.60655C4.68618 9.78433 5.04174 9.93544 5.4684 10.0599C5.89507 10.1843 6.33063 10.2465 6.77507 10.2465C7.21952 10.2465 7.66396 10.1843 8.1084 10.0599C8.55285 9.93544 8.89952 9.78433 9.1484 9.60655L10.0017 9.07322C10.2862 9.07322 10.544 9.11766 10.7751 9.20655C11.0062 9.29544 11.2017 9.41988 11.3617 9.57988C11.5217 9.73988 11.6728 9.94433 11.8151 10.1932C11.9573 10.4421 12.0728 10.6999 12.1617 10.9665C12.2506 11.2332 12.3217 11.5265 12.3751 11.8465C12.4284 12.1665 12.4728 12.4688 12.5084 12.7532V13.6065C12.5084 14.1754 12.3484 14.6199 12.0284 14.9399Z" fill="#1A1A1A"/>
</svg>
