<svg width="21" height="21" viewBox="0 0 21 21" fill="none" xmlns="http://www.w3.org/2000/svg">
<path d="M15.35 20.8799C13.5277 20.8799 11.75 20.5465 10.0166 19.8799C8.1944 19.1688 6.58328 18.1021 5.18328 16.6799C3.78328 15.2577 2.70551 13.6354 1.94995 11.8132C1.28328 10.0799 0.949951 8.3021 0.949951 6.47988C0.949951 5.45766 1.20551 4.52433 1.71662 3.67988C2.22773 2.83544 2.90551 2.15766 3.74995 1.64655C4.5944 1.13544 5.52773 0.879882 6.54995 0.879882C6.81662 0.879882 6.9944 1.01322 7.08328 1.27988L9.61662 7.54655C9.66106 7.67988 9.64995 7.82433 9.58328 7.97988C9.51662 8.13544 9.41662 8.23544 9.28328 8.27988L6.54995 9.41322C6.5944 10.4354 6.88328 11.391 7.41662 12.2799C7.94995 13.1688 8.66106 13.8799 9.54995 14.4132C10.4388 14.9465 11.3944 15.2354 12.4166 15.2799L13.55 12.5465C13.5944 12.4132 13.6944 12.3132 13.85 12.2465C14.0055 12.1799 14.15 12.1688 14.2833 12.2132L20.55 14.7465C20.8166 14.8354 20.95 15.0132 20.95 15.2799C20.95 16.3021 20.6944 17.2354 20.1833 18.0799C19.6722 18.9243 18.9944 19.6021 18.15 20.1132C17.3055 20.6243 16.3722 20.8799 15.35 20.8799ZM6.14995 2.07988C5.03884 2.16877 4.0944 2.63544 3.31662 3.47988C2.53884 4.32433 2.14995 5.32433 2.14995 6.47988C2.14995 8.25766 2.48328 9.94655 3.14995 11.5465C3.81662 13.1465 4.77217 14.5688 6.01662 15.8132C7.26106 17.0577 8.68328 18.0132 10.2833 18.6799C11.8833 19.3465 13.5722 19.6799 15.35 19.6799C16.5055 19.6799 17.5055 19.291 18.35 18.5132C19.1944 17.7354 19.6611 16.791 19.75 15.6799L14.4166 13.5465L13.35 16.1465C13.2611 16.3688 13.0833 16.4799 12.8166 16.4799C11.4833 16.4799 10.2388 16.1465 9.08328 15.4799C7.92773 14.8132 7.01662 13.9021 6.34995 12.7465C5.68328 11.591 5.34995 10.3465 5.34995 9.01322C5.34995 8.74655 5.46106 8.56877 5.68328 8.47988L8.28328 7.41322L6.14995 2.07988Z" fill="#1A1A1A"/>
</svg>
