<svg width="21" height="21" viewBox="0 0 21 21" fill="none" xmlns="http://www.w3.org/2000/svg">
<path d="M20.78 19.0868L15.8466 14.2202C16.4689 13.4646 16.9578 12.6313 17.3133 11.7202C17.6689 10.8091 17.8466 9.84239 17.8466 8.82017C17.8466 7.30905 17.4689 5.90905 16.7133 4.62017C15.9578 3.33128 14.9355 2.30905 13.6466 1.5535C12.3578 0.797943 10.9466 0.420165 9.41331 0.420165C7.87998 0.420165 6.46887 0.797943 5.17998 1.5535C3.89109 2.30905 2.86887 3.33128 2.11331 4.62017C1.35776 5.90905 0.97998 7.32017 0.97998 8.8535C0.97998 10.3868 1.35776 11.7979 2.11331 13.0868C2.86887 14.3757 3.89109 15.3979 5.17998 16.1535C6.46887 16.9091 7.86887 17.2868 9.37998 17.2868C10.4022 17.2868 11.3689 17.1091 12.28 16.7535C13.1911 16.3979 14.0244 15.9091 14.78 15.2868L19.6466 20.2202C19.8244 20.3535 20.0133 20.4202 20.2133 20.4202C20.4133 20.4202 20.5911 20.3424 20.7466 20.1868C20.9022 20.0313 20.98 19.8535 20.98 19.6535C20.98 19.4535 20.9133 19.2646 20.78 19.0868ZM2.51331 8.82017C2.51331 7.57572 2.82443 6.43128 3.44665 5.38683C4.06887 4.34239 4.9022 3.50905 5.94665 2.88683C6.99109 2.26461 8.13554 1.9535 9.37998 1.9535C10.6244 1.9535 11.7689 2.26461 12.8133 2.88683C13.8578 3.50905 14.6911 4.34239 15.3133 5.38683C15.9355 6.43128 16.2466 7.57572 16.2466 8.82017C16.2466 10.0646 15.9355 11.2091 15.3133 12.2535C14.6911 13.2979 13.8578 14.1313 12.8133 14.7535C11.7689 15.3757 10.6244 15.6868 9.37998 15.6868C8.13554 15.6868 6.99109 15.3757 5.94665 14.7535C4.9022 14.1313 4.06887 13.2979 3.44665 12.2535C2.82443 11.2091 2.51331 10.0646 2.51331 8.82017Z" fill="#1A1A1A"/>
</svg>
