<svg width="19" height="18" viewBox="0 0 19 18" fill="none" xmlns="http://www.w3.org/2000/svg">
<path d="M13.07 12.4301C12.91 12.4301 12.8 12.3501 12.74 12.1901C12.68 12.0301 12.71 11.8901 12.83 11.7701C12.95 11.6501 13.09 11.6401 13.25 11.7401C13.41 11.8401 13.47 11.9501 13.43 12.0701C13.39 12.1901 13.34 12.2801 13.28 12.3401C13.22 12.4001 13.15 12.4301 13.07 12.4301ZM11.09 5.8301H7.84997C7.72997 5.8301 7.63997 5.8601 7.57997 5.9201C7.51997 5.9801 7.48997 6.0701 7.48997 6.1901V10.6301C7.48997 10.7501 7.51997 10.8401 7.57997 10.9001C7.63997 10.9601 7.72997 10.9901 7.84997 10.9901H11.09C11.21 10.9901 11.3 10.9601 11.36 10.9001C11.42 10.8401 11.45 10.7501 11.45 10.6301V6.1901C11.45 6.0701 11.42 5.9801 11.36 5.9201C11.3 5.8601 11.21 5.8301 11.09 5.8301ZM8.14997 6.5501H9.10997V10.3301H8.14997V6.5501ZM10.79 10.3301H9.82997V6.5501H10.79V10.3301ZM18.29 9.0701L13.43 6.1901V3.6101C13.43 3.4901 13.39 3.3901 13.31 3.3101L9.70997 0.490098C9.54997 0.410098 9.38997 0.410098 9.22997 0.490098L5.62997 3.3101C5.54997 3.3901 5.50997 3.4901 5.50997 3.6101V6.1901L0.649971 9.0701C0.529971 9.1101 0.469971 9.2101 0.469971 9.3701V11.2901C0.469971 11.4101 0.509971 11.5001 0.589971 11.5601C0.669971 11.6201 0.739971 11.6501 0.799971 11.6501C0.859971 11.6501 0.929971 11.6301 1.00997 11.5901L1.24997 11.4701V16.9901C1.24997 17.0701 1.27997 17.1501 1.33997 17.2301C1.39997 17.3101 1.48997 17.3501 1.60997 17.3501H17.33C17.45 17.3501 17.54 17.3101 17.6 17.2301C17.66 17.1501 17.69 17.0701 17.69 16.9901V11.4701L17.93 11.5901C18.01 11.6301 18.08 11.6501 18.14 11.6501C18.2 11.6501 18.27 11.6201 18.35 11.5601C18.43 11.5001 18.47 11.4101 18.47 11.2901V9.3701C18.47 9.2101 18.41 9.1101 18.29 9.0701ZM9.46997 1.2101L12.71 3.7901V4.9301L9.70997 2.5901C9.54997 2.4701 9.38997 2.4701 9.22997 2.5901L6.22997 4.9301V3.7901L9.46997 1.2101ZM1.18997 9.5501L5.50997 6.9701V8.1101L1.18997 10.6901V9.5501ZM1.96997 12.7301H3.46997V14.8301H1.96997V12.7301ZM1.96997 15.4901H3.82997C3.94997 15.4901 4.03997 15.4601 4.09997 15.4001C4.15997 15.3401 4.18997 15.2501 4.18997 15.1301V12.3701C4.18997 12.2501 4.15997 12.1601 4.09997 12.1001C4.03997 12.0401 3.94997 12.0101 3.82997 12.0101H1.96997V11.0501L5.50997 8.9501V16.6301H1.96997V15.4901ZM8.62997 16.6301V12.7901H10.31V16.6301H8.62997ZM16.97 14.8301H15.35V12.7301H16.97V14.8301ZM16.97 12.0101H14.99C14.91 12.0101 14.84 12.0401 14.78 12.1001C14.72 12.1601 14.69 12.2501 14.69 12.3701V15.1301C14.69 15.2501 14.72 15.3401 14.78 15.4001C14.84 15.4601 14.91 15.4901 14.99 15.4901H16.97V16.6301H13.43V13.6301C13.43 13.5501 13.4 13.4701 13.34 13.3901C13.28 13.3101 13.2 13.2701 13.1 13.2701C13 13.2701 12.91 13.3101 12.83 13.3901C12.75 13.4701 12.71 13.5501 12.71 13.6301V16.6301H10.97V12.4901C10.97 12.3701 10.94 12.2801 10.88 12.2201C10.82 12.1601 10.75 12.1301 10.67 12.1301H8.26997C8.18997 12.1301 8.11997 12.1601 8.05997 12.2201C7.99997 12.2801 7.96997 12.3701 7.96997 12.4901V16.6301H6.22997V5.8301L9.46997 3.3101L12.71 5.8301V10.4501C12.71 10.5701 12.75 10.6601 12.83 10.7201C12.91 10.7801 13 10.8101 13.1 10.8101C13.2 10.8101 13.28 10.7801 13.34 10.7201C13.4 10.6601 13.43 10.5701 13.43 10.4501V8.9501L16.97 11.0501V12.0101ZM17.75 10.6901L13.43 8.1101V6.9701L17.75 9.5501V10.6901Z" fill="#1A1A1A"/>
</svg>
